<svg xmlns="http://www.w3.org/2000/svg" width="512" height="512" viewBox="0 0 512 512">
  <defs>
    <linearGradient id="grad" x1="0%" y1="0%" x2="100%" y2="100%">
      <stop offset="0%" stop-color="#0f172a" />
      <stop offset="100%" stop-color="#1e40af" />
    </linearGradient>
  </defs>
  <rect width="512" height="512" rx="120" ry="120" fill="url(#grad)" />
  <path
    d="M156 150h200a30 30 0 0 1 30 30v180a30 30 0 0 1-30 30H156a30 30 0 0 1-30-30V180a30 30 0 0 1 30-30zm19 70v140h162V220zm40-60v30h-40v-30zm62 0v30h-40v-30zm62 0v30h-40v-30z"
    fill="#f8fafc"
  />
</svg>
